<svg xmlns="http://www.w3.org/2000/svg" viewBox="0 0 2400 452"><path fill="currentColor" fill-rule="evenodd" d="M569.477 2.25c-.308 1.238-.405 56.475-.215 122.75.376 131.019.128 125.023 6.042 146 9.045 32.084 28.643 55.649 57.696 69.372 19.794 9.35 40.697 13.087 69.5 12.426l13-.298.266-27.25.266-27.25h-12.909c-34.111 0-56.489-11.631-67.34-35-5.458-11.755-5.745-15.293-5.783-71.122-.019-28.258-.027-51.935-.017-52.616.013-.959 8.882-1.298 39.267-1.5l39.25-.262v-55l-39.202-.5-39.202-.5-.232-39c-.128-21.45-.427-39.788-.665-40.75C628.8.133 626.537 0 599.402 0h-29.364zM1132.5 77.597c-59.673 5.311-95.889 27.882-117.489 73.223-1.656 3.476-3.011 6.873-3.011 7.55s-.378 1.658-.84 2.18c-.856.968-4.166 11.839-6.956 22.846-1.347 5.317-1.592 22.956-1.9 136.869l-.354 130.765 29.275-.265 29.275-.265.5-63.25.5-63.251 5.5 3.899c25.638 18.173 62.552 28.077 93.783 25.162 42.311-3.949 69.679-17.246 96.414-46.841 12.55-13.893 22.789-33.741 28.485-55.219 2.621-9.882 2.786-11.736 2.801-31.5.012-14.13-.427-22.963-1.34-27-1.534-6.779-6.104-22.226-7.249-24.5-.415-.825-2.646-5.55-4.959-10.5-15.051-32.222-46.079-59.416-81.935-71.813-6.982-2.413-13.351-3.955-27-6.535-6.03-1.139-27.151-2.12-33.5-1.555m995-.003c-62.286 4.491-108.826 39.623-127.927 96.569-9.153 27.288-9.509 60.566-.918 85.837 7.207 21.198 18.305 39.11 33.803 54.555 31.652 31.545 74.532 46.493 122.051 42.546 44.32-3.681 76.045-19.457 103.119-51.277 30.06-35.329 39.54-86.844 24.167-131.324-10.395-30.076-32.62-57.847-59.456-74.291-17.369-10.644-32.348-16.056-58.339-21.08-6.012-1.162-28.534-2.109-36.5-1.535M385 82.067c-22.963 3.399-36.022 7.413-55.5 17.06-19.822 9.817-41.605 29.376-52.255 46.919-23.13 38.102-27.54 83.523-11.646 119.954 20.778 47.625 62.301 78.938 117.253 88.421 10.343 1.785 43.861 2.201 51.849.643 2.639-.514 8.849-1.696 13.799-2.625 30.804-5.784 66.666-27.188 83.129-49.615l3.751-5.109-2.94-2.353c-1.617-1.294-3.221-2.354-3.565-2.357-.524-.004-12.872-6.79-37.067-20.371-2.581-1.449-5.441-2.634-6.356-2.634s-5.082 3.192-9.259 7.093c-31.508 29.425-82.98 33.146-120.863 8.738-23.752-15.303-36.963-37.502-38.062-63.956-1.427-34.352 14.606-60.842 47.232-78.038 5.53-2.914 10.881-4.828 22.347-7.99 9.257-2.553 33.139-3.107 42.153-.977 22.045 5.207 37.02 12.924 48.042 24.755 8.374 8.989 15.413 21.112 16.612 28.612l.6 3.751-79.377.256-79.377.256v45l110.75.254c60.913.14 110.774-.085 110.804-.5s.435-4.354.9-8.754c1.542-14.586-2.293-41.977-8.042-57.433-18.949-50.945-61.653-82.76-120.114-89.49-17.253-1.986-28.941-1.858-44.798.49m1278.086-.505c-38.123 4.895-71.399 20.513-95.586 44.864-15.174 15.276-26.939 33.94-39.442 62.574-26.969 61.76-46.294 87.972-74.36 100.855-14.281 6.555-24.283 8.334-44.78 7.961-15.62-.283-17.885-.546-21.94-2.545-5.189-2.557-7.978-6.579-7.978-11.502 0-3.557 2.456-6.266 21.544-23.769 3.299-3.025 8.688-7.975 11.977-11s10.02-9.1 14.958-13.5 12.364-11.161 16.5-15.024c4.137-3.863 12.237-11.063 18.001-16 25.186-21.571 32.077-30.285 35.451-44.834 8.002-34.507-11.912-63.545-50.943-74.283l-9.988-2.748-87.762-.356c-75.514-.306-87.839-.156-88.312 1.078-.303.788.986 3.849 2.863 6.8 1.877 2.952 7.159 11.667 11.737 19.367s10.207 17.15 12.509 21l4.185 7 68.39.5 68.39.5 3.252 2.32c3.999 2.852 5.593 5.669 4.86 8.588-.725 2.891-5.958 7.812-58.572 55.084-2.454 2.205-7.855 7.158-12.003 11.008a3806 3806 0 0 1-17.945 16.5c-19.366 17.687-24.737 25.2-28.475 39.831-9.323 36.496 16.595 71.668 59.456 80.684 9.891 2.081 48.066 2.055 59.849-.04 39.147-6.962 65.927-22.665 92.045-53.975 15.868-19.021 27.999-39.379 43.798-73.5 17.012-36.738 24.066-48.861 35.111-60.339 14.368-14.932 30.722-23.757 55.124-29.748 8.905-2.186 33.714-1.642 43.153.946 22.595 6.196 36.417 13.993 46.917 26.467 7.559 8.98 16.302 26.969 14.153 29.118-.306.306-35.533.556-78.283.556-64.011 0-77.817.236-78.24 1.339-.282.736-.443 10.974-.357 22.75l.157 21.411 109.75.254c60.362.14 109.753-.085 109.758-.5s.454-4.579 1-9.254c1.535-13.148-1.069-34.706-6.16-51-8.976-28.726-29.627-56.35-53.605-71.704C1766.444 100.942 1748.68 92 1746.83 92c-.787 0-1.858-.379-2.38-.843s-3.65-1.625-6.95-2.58-7.125-2.095-8.5-2.533c-16.47-5.243-44.919-7.178-65.914-4.482M132 82.707c-42.506 4.703-72.338 27.617-81.074 62.273-4.946 19.624-1.051 42.471 9.877 57.935 11.746 16.62 20.936 22.48 62.009 39.54 26.112 10.846 30.62 13.135 35.526 18.041 10.032 10.032 7.914 24.651-4.622 31.896-9.509 5.496-10.828 5.608-66.279 5.608h-51.2l-2.456 3.25c-2.479 3.281-17.249 24.909-27.967 40.952C2.616 346.988 0 351.376 0 351.952c0 1.44 139.429 1.44 150.913 0 47.444-5.949 77.034-37.616 74.819-80.072-1.454-27.888-14.712-48.164-41.253-63.093-5.033-2.83-12.987-6.406-42.979-19.319-18.569-7.995-24.11-11.447-27.444-17.098-7.226-12.246-.807-25.236 15.944-32.266 2.83-1.187 12.194-1.577 48.882-2.036l45.383-.568 1.664-3c.915-1.65 5.678-9.075 10.584-16.5 10.538-15.949 10.517-15.916 12.646-19.645.913-1.598 3.276-5.359 5.25-8.357 1.975-2.999 3.591-6.025 3.591-6.725 0-1.018-12.248-1.241-61.25-1.113-33.687.088-62.825.334-64.75.547m1828-.181c-.825.162-4.875.829-9 1.483-17.719 2.811-31.219 7.662-48.426 17.401-24.576 13.911-44.327 41.461-51.468 71.79-4.463 18.957-4.69 24.923-4.354 114.05L1847 353h58l.018-71.75c.021-79.48.387-85.586 6.014-100.177 5.507-14.28 16.726-27.102 29.968-34.249 11.232-6.062 19.574-8.002 37.5-8.722l15-.602.266-27.75.266-27.75-16.266.116c-8.946.064-16.941.248-17.766.41M734.681 84.652c-1.158 1.159-.789 150.898.398 160.848 3.699 31.032 15.364 54.976 37.082 76.117 17.06 16.606 40.7 28.575 64.891 32.852 17.722 3.134 44.464 1.595 61.707-3.552 7.201-2.149 7.304-2.189 17.305-6.809 27.084-12.512 50.319-39.168 60.238-69.108 6.635-20.025 6.698-21.069 6.698-110.631V84h-59v76.393c0 66.575-.209 77.401-1.622 84.238-7.314 35.366-42.421 59.344-75.964 51.882-23.432-5.212-40.817-20.635-49.235-43.678L794.5 245.5 794 165l-.5-80.5-29.069-.265c-15.987-.145-29.375.042-29.75.417M1131 133.492c-32.285 5.542-59.314 29.736-68.158 61.008-3.322 11.746-3.292 35.641.059 46.5 8.099 26.253 28.1 46.7 54.099 55.304 11.675 3.864 13.852 4.196 27.5 4.196 13.768 0 18.249-.678 28.5-4.315 22.14-7.854 42.64-27.317 51.215-48.624 14.558-36.172-.079-80.169-33.896-101.892-17.227-11.067-39.341-15.606-59.319-12.177m999.791-.41c-28.038 2.968-56.099 21.855-67.766 45.612-7.974 16.235-9.39 22.106-9.363 38.806.026 16.147 1.708 23.625 8.324 37 15.545 31.427 46.756 49.036 83.721 47.235 37.426-1.824 69.966-27.678 80.847-64.235 2.491-8.372 2.513-29.322.039-39-7.665-29.99-31.285-53.915-62.185-62.988-4.434-1.302-22.1-3.686-24.908-3.362-.55.064-4.469.483-8.709.932M2343 261.098c-11.349 2.216-25.394 12.907-30.744 23.402-9.759 19.146-5.673 41.787 10.152 56.238 22.935 20.945 59.121 13.782 73.221-14.494 3.836-7.693 3.862-7.823 3.866-19.744.005-11.804-.055-12.122-3.674-19.5-9.952-20.286-30.352-30.29-52.821-25.902m-734.5 10.773c-9.137 5.167-31.927 17.854-37 20.598-8.26 4.467-8.271 4.506-2.876 10.632 18.012 20.456 35.155 32.834 57.531 41.538 9.528 3.707 10.493 4.01 21.845 6.862 41.668 10.469 93.053 2.278 126.883-20.226 15.913-10.584 37.49-31.244 35.684-34.166-.301-.488-5.84-3.929-12.308-7.646l-17.759-10.209c-12.405-7.133-16.425-9.254-17.542-9.254-.633 0-3.92 2.399-7.304 5.332-7.596 6.581-17.63 13.526-23.842 16.501-37.485 17.955-80.681 11.89-109.692-15.402-4.345-4.087-8.061-7.421-8.26-7.409s-2.61 1.294-5.36 2.849"/></svg>